<?xml version="1.0" encoding="UTF-8"?>
<svg width="53px" height="53px" viewBox="0 0 53 53" version="1.1" xmlns="http://www.w3.org/2000/svg" xmlns:xlink="http://www.w3.org/1999/xlink">
    <!-- Generator: Sketch 43.1 (39012) - http://www.bohemiancoding.com/sketch -->
    <title>Group</title>
    <desc>Created with Sketch.</desc>
    <defs></defs>
    <g id="Page-1" stroke="none" stroke-width="1" fill="none" fill-rule="evenodd">
        <g id="iPad-Pro-Portrait" transform="translate(-203.000000, -348.000000)">
            <g id="Group" transform="translate(203.000000, 348.000000)">
                <rect id="Rectangle" fill="#FF4A00" x="0" y="0" width="53" height="53" rx="2"></rect>
                <g id="bookstore-(1)" transform="translate(10.000000, 12.000000)" fill-rule="nonzero" fill="#FFFFFF">
                    <path d="M32.28654,27.3803543 C32.199915,27.3803543 32.11032,27.3604724 32.02353,27.3237161 L31.852755,27.2443559 C24.024,23.6886835 17.101755,27.2697512 17.031795,27.3066746 C16.7211,27.4709085 16.337805,27.3491114 16.17561,27.0375181 C16.01325,26.7229174 16.133535,26.3348041 16.44423,26.1705702 C16.746345,26.0063363 23.9877,22.2635409 32.3763,26.0743355 L32.549715,26.1536958 C32.868825,26.3010552 33.00858,26.6806477 32.865855,27.0037691 C32.75943,27.2415156 32.52711,27.3803543 32.28654,27.3803543 Z" id="Shape"></path>
                    <path d="M32.36475,27.3746737 C32.015115,27.3746737 31.73247,27.0858025 31.73247,26.7316053 L31.73247,2.97248956 C31.73247,2.61829233 32.015115,2.32925402 32.36475,2.32925402 C32.717355,2.32925402 33,2.61829233 33,2.97248956 L33,26.7317724 C33,27.0858025 32.717355,27.3746737 32.36475,27.3746737 Z" id="Shape"></path>
                    <path d="M29.1918,6.82555394 C28.842165,6.82555394 28.55952,6.53651564 28.55952,6.18248548 L28.55952,1.68885875 C28.55952,1.33182126 28.842165,1.04579029 29.1918,1.04579029 C29.544405,1.04579029 29.82705,1.33182126 29.82705,1.68885875 L29.82705,6.18248548 C29.82705,6.53651564 29.544405,6.82555394 29.1918,6.82555394 Z" id="Shape"></path>
                    <path d="M16.5,27.3746737 C16.1502,27.3746737 15.867555,27.0858025 15.867555,26.7316053 L15.867555,2.97248956 C15.867555,2.61829233 16.1502,2.32925402 16.5,2.32925402 C16.852605,2.32925402 17.13525,2.61829233 17.13525,2.97248956 L17.13525,26.7317724 C17.13525,27.0858025 16.852605,27.3746737 16.5,27.3746737 Z" id="Shape"></path>
                    <path d="M32.20536,3.45967782 C32.096295,3.45967782 31.98723,3.43144229 31.883775,3.37196389 L31.71861,3.27272183 C23.990505,-1.22925861 17.160495,3.3039647 17.09334,3.3492418 C16.80228,3.54755883 16.407765,3.4681986 16.21191,3.17648711 C16.016055,2.88176829 16.09443,2.48229396 16.385325,2.28397693 C16.45809,2.23285223 23.945625,-2.73927491 32.3565,2.1593396 L32.53008,2.2640951 C32.832195,2.44537057 32.932845,2.83916437 32.75382,3.14240398 C32.63634,3.34640154 32.423655,3.45967782 32.20536,3.45967782 Z" id="Shape"></path>
                    <path d="M16.421625,27.3803543 C16.334835,27.3803543 16.245405,27.3604724 16.158615,27.3237161 L15.98784,27.2443559 C8.15892,23.6886835 1.236675,27.2697512 1.166715,27.3066746 C0.856185,27.4709085 0.472725,27.3491114 0.31053,27.0375181 C0.148335,26.7229174 0.26862,26.3348041 0.57915,26.1705702 C0.88143,26.0063363 8.12262,22.2635409 16.51122,26.0743355 L16.684635,26.1536958 C17.003745,26.3010552 17.1435,26.6806477 16.99797,27.0037691 C16.894515,27.2415156 16.662195,27.3803543 16.421625,27.3803543 Z" id="Shape"></path>
                    <path d="M13.645995,20.0112141 C13.5564,20.0112141 13.469775,19.9914993 13.38579,19.9545759 L13.29636,19.9149794 C8.36055,17.6710063 3.98442,19.9149794 3.94251,19.9377015 C3.63198,20.1019354 3.24852,19.9801383 3.086325,19.6657047 C2.923965,19.3511041 3.044415,18.9629908 3.354945,18.7987569 C3.553605,18.6940014 8.30181,16.2375099 13.79433,18.7307577 L13.906365,18.7818824 C14.22531,18.9292418 14.368035,19.3088343 14.22531,19.6317887 C14.118885,19.8695352 13.88673,20.0112141 13.645995,20.0112141 Z" id="Shape"></path>
                    <path d="M13.645995,14.874686 C13.5564,14.874686 13.469775,14.8548041 13.38579,14.8180478 L13.29636,14.775611 C8.36055,12.5344781 3.98442,14.7784513 3.94251,14.8010063 C3.63198,14.962567 3.24852,14.8407699 3.086325,14.5261693 C2.923965,14.2145759 3.044415,13.8264627 3.354945,13.6620617 C3.553605,13.5573062 8.30181,11.1008147 13.79433,13.5940625 L13.906365,13.6450201 C14.22531,13.7895393 14.368035,14.171972 14.22531,14.4949264 C14.118885,14.7330071 13.88673,14.874686 13.645995,14.874686 Z" id="Shape"></path>
                    <path d="M13.645995,9.73531759 C13.5564,9.73531759 13.469775,9.71827603 13.38579,9.67867945 L13.29636,9.63908287 C8.36055,7.39778296 3.98442,9.64175606 3.94251,9.66163789 C3.63198,9.82603887 3.24852,9.70407472 3.086325,9.38964115 C2.923965,9.07520757 3.044415,8.68993455 3.354945,8.52553357 C3.553605,8.42077807 8.30181,5.96428662 13.79433,8.45753438 L13.906365,8.508492 C14.22531,8.65301116 14.368035,9.03260366 14.22531,9.35555802 C14.118885,9.59647896 13.88673,9.73531759 13.645995,9.73531759 Z" id="Shape"></path>
                    <path d="M29.429565,19.9657699 C29.34294,19.9657699 29.253345,19.9460552 29.169525,19.9091318 L29.10501,19.8778889 C24.191805,17.6481171 19.851975,19.8693681 19.807095,19.8920902 C19.496565,20.0536509 19.11327,19.934527 18.951075,19.6200935 C18.788715,19.3054928 18.909,18.9173795 19.21953,18.7531456 C19.418355,18.6483901 24.13026,16.2117805 29.583675,18.6879867 L29.69274,18.7361041 C30.011685,18.8834635 30.15441,19.263056 30.00888,19.5888506 C29.90262,19.8242581 29.673105,19.9657699 29.429565,19.9657699 Z" id="Shape"></path>
                    <path d="M19.5162,14.8690055 C19.28685,14.8690055 19.065915,14.7443681 18.951075,14.523329 C18.788715,14.2088954 18.909,13.8236224 19.21953,13.6592214 C19.418355,13.5544659 24.13026,11.115016 29.583675,13.5912222 L29.653635,13.6253054 C29.972745,13.7726648 30.13197,14.1607781 29.98941,14.4837324 C29.843715,14.8066868 29.48847,14.9568865 29.169525,14.8123673 L29.0631,14.7640829 C24.188835,12.5513526 19.851975,14.7726037 19.807095,14.7953257 C19.71486,14.8436102 19.61421,14.8690055 19.5162,14.8690055 Z" id="Shape"></path>
                    <path d="M19.5162,9.77207391 C19.28685,9.77207391 19.065915,9.64743658 18.951075,9.42639746 C18.788715,9.11196389 18.909,8.72652379 19.21953,8.56228988 C19.418355,8.45753438 24.13026,6.0180845 29.583675,8.4942907 L29.63961,8.52252623 C29.958555,8.66988565 30.12636,9.06083919 29.980995,9.38095329 C29.83827,9.70390765 29.49408,9.85978785 29.17233,9.71810895 C29.169525,9.71526869 29.11359,9.68970635 29.110785,9.68970635 C24.189,7.4544211 19.849335,9.67851238 19.80726,9.70106739 C19.71486,9.7495189 19.61421,9.77207391 19.5162,9.77207391 Z" id="Shape"></path>
                    <path d="M16.5,27.3746737 C16.1502,27.3746737 15.867555,27.0858025 15.867555,26.7316053 L15.867555,2.97248956 C15.867555,2.61829233 16.1502,2.32925402 16.5,2.32925402 C16.852605,2.32925402 17.13525,2.61829233 17.13525,2.97248956 L17.13525,26.7317724 C17.13525,27.0858025 16.852605,27.3746737 16.5,27.3746737 Z" id="Shape"></path>
                    <path d="M0.63525,27.3746737 C0.28545,27.3746737 0,27.0858025 0,26.7316053 L0,2.97248956 C0,2.61829233 0.285285,2.32925402 0.63525,2.32925402 C0.98505,2.32925402 1.270335,2.61829233 1.270335,2.97248956 L1.270335,26.7317724 C1.270335,27.0858025 0.984885,27.3746737 0.63525,27.3746737 Z" id="Shape"></path>
                    <path d="M16.340445,3.45967782 C16.23138,3.45967782 16.122315,3.43144229 16.018695,3.37196389 L15.853695,3.27272183 C8.125425,-1.22925861 1.29558,3.30379763 1.22826,3.3492418 C0.9372,3.54755883 0.54285,3.4681986 0.34683,3.17648711 C0.150975,2.88176829 0.22935,2.48229396 0.517605,2.28397693 C0.593175,2.23285223 8.08071,-2.73927491 16.48878,2.1593396 L16.665,2.2640951 C16.96728,2.44537057 17.06793,2.83916437 16.888905,3.14240398 C16.771425,3.34640154 16.55874,3.45967782 16.340445,3.45967782 Z" id="Shape"></path>
                    <path d="M32.28654,29.9529623 C32.199915,29.9529623 32.11032,29.9330804 32.02353,29.8934839 L31.852755,29.8141236 C24.024,26.2612915 17.101755,29.8425262 17.031795,29.8794496 C16.7211,30.0436835 16.337805,29.9218865 16.17561,29.6074529 C16.01325,29.2928522 16.133535,28.9047389 16.44423,28.740505 C16.746345,28.5789443 23.9877,24.836316 32.3763,28.6442703 L32.549715,28.7236306 C32.868825,28.87099 33.00858,29.2505825 32.865855,29.5735368 C32.75943,29.8112834 32.52711,29.9529623 32.28654,29.9529623 Z" id="Shape"></path>
                    <path d="M16.421625,29.9529623 C16.334835,29.9529623 16.245405,29.9330804 16.158615,29.8934839 L15.98784,29.8141236 C8.15892,26.2612915 1.236675,29.8425262 1.166715,29.8794496 C0.856185,30.0436835 0.472725,29.9218865 0.31053,29.6074529 C0.148335,29.2928522 0.26862,28.9047389 0.57915,28.740505 C0.88143,28.5789443 8.12262,24.836316 16.51122,28.6442703 L16.684635,28.7236306 C17.003745,28.87099 17.1435,29.2505825 16.99797,29.5735368 C16.894515,29.8112834 16.662195,29.9529623 16.421625,29.9529623 Z" id="Shape"></path>
                </g>
            </g>
        </g>
    </g>
</svg>